<?xml version="1.0" standalone="no"?>
<!DOCTYPE svg PUBLIC "-//W3C//DTD SVG 20010904//EN"
 "http://www.w3.org/TR/2001/REC-SVG-20010904/DTD/svg10.dtd">
<svg version="1.0" xmlns="http://www.w3.org/2000/svg"
 width="1024.000000pt" height="768.000000pt" viewBox="0 0 1024.000000 768.000000"
 preserveAspectRatio="xMidYMid meet">

<g transform="translate(0.000000,768.000000) scale(0.100000,-0.100000)"
fill="#000000" stroke="none">
<path d="M6593 7648 l39 -34 -119 -56 c-316 -150 -477 -232 -465 -236 7 -2 61
5 120 17 233 45 513 93 518 89 2 -3 -26 -90 -62 -194 -108 -310 -144 -418
-144 -427 0 -13 100 122 160 217 8 13 42 61 74 107 33 46 77 110 99 142 22 32
44 60 48 63 4 2 29 -40 55 -93 26 -54 80 -165 120 -247 41 -82 76 -158 80
-169 4 -11 15 -34 26 -51 l19 -31 -5 52 c-3 29 -29 175 -56 324 -28 149 -49
274 -46 276 5 5 65 -14 415 -136 112 -39 206 -69 209 -66 3 3 3 6 1 8 -51 34
-137 94 -184 126 -103 72 -255 176 -273 186 -9 6 -19 12 -22 15 -3 3 -18 15
-33 27 l-28 22 103 50 c57 28 98 50 91 51 -14 0 -213 -93 -213 -100 0 -3 45
-36 100 -75 56 -38 123 -86 150 -105 27 -19 89 -64 139 -98 88 -62 110 -82 74
-67 -68 27 -538 183 -542 180 -4 -5 27 -194 73 -447 13 -71 21 -128 17 -128
-7 1 -244 481 -249 505 -5 23 -25 17 -43 -13 -10 -15 -46 -68 -80 -118 -186
-266 -234 -333 -237 -330 -4 4 37 128 127 385 34 96 60 175 59 177 -2 1 -23
-1 -48 -6 -127 -25 -508 -90 -525 -90 -19 1 20 21 369 189 138 67 147 73 133
89 -9 9 -31 25 -49 35 l-33 18 38 -33z"/>
<path d="M9662 7616 c-122 -62 -144 -81 -74 -65 53 11 249 48 300 55 l43 7 -7
-29 c-4 -16 -18 -57 -31 -92 -45 -121 -84 -243 -81 -251 2 -5 53 63 113 150
61 87 113 159 116 159 4 0 16 -19 27 -42 39 -85 145 -303 149 -307 12 -16 7
27 -23 189 -18 102 -34 189 -34 194 0 8 21 5 67 -10 17 -5 17 -5 0 6 -10 7
-32 16 -49 21 l-31 8 6 -47 c4 -26 16 -96 27 -157 11 -60 20 -114 19 -120 0
-5 -35 60 -78 144 l-78 155 -29 -45 c-37 -56 -163 -229 -168 -229 -2 0 21 70
51 156 29 87 52 158 51 159 -2 2 -73 -10 -158 -25 -138 -25 -173 -28 -159 -17
2 2 46 25 98 50 52 26 86 47 75 46 -10 -1 -74 -29 -142 -63z"/>
<path d="M677 7409 c-9 -5 -26 -28 -37 -50 l-20 -39 -108 0 c-83 0 -113 -4
-131 -16 -23 -17 -178 -324 -188 -375 -5 -27 19 -90 41 -109 14 -10 85 -31
342 -100 l152 -40 653 0 c360 0 659 4 665 8 23 16 44 58 44 89 0 26 4 33 20
33 11 0 20 -7 20 -15 0 -8 7 -15 15 -15 9 0 15 9 15 23 0 18 -2 19 -10 7 -6
-9 -10 -10 -10 -3 0 6 -12 14 -27 16 -16 2 111 5 280 6 338 1 352 3 382 61 31
60 125 318 125 343 0 14 -12 39 -26 56 l-26 31 -811 2 -812 3 -3 22 c-2 12
-14 33 -27 47 l-24 26 -238 0 c-144 0 -245 -5 -256 -11z m486 -33 c11 -8 17
-27 17 -50 l0 -36 133 -1 c73 -1 121 -4 107 -8 -22 -7 -21 -8 18 -14 136 -22
134 -21 57 -28 -122 -11 -322 -10 -350 3 -20 9 -25 18 -25 50 l0 38 -196 0
c-160 0 -198 -3 -210 -15 -13 -13 -18 -13 -29 -1 -18 18 -9 51 18 64 34 17
438 15 460 -2z m-253 -93 c1 -17 2 -17 15 1 8 11 21 16 30 12 14 -5 14 -9 1
-34 -13 -25 -20 -29 -60 -29 -25 0 -43 3 -41 7 2 4 9 19 14 34 12 29 41 36 41
9z m160 11 c0 -3 -7 -12 -15 -21 -9 -9 -13 -23 -10 -34 5 -16 1 -19 -29 -19
-39 0 -43 9 -26 54 8 21 16 26 45 26 19 0 35 -3 35 -6z m-498 -13 c-9 -5 5
-10 40 -14 29 -2 59 0 66 5 8 7 12 7 12 0 0 -20 -93 -42 -175 -42 l-82 0 -18
-40 c-10 -22 -21 -40 -25 -40 -4 0 -11 -10 -15 -22 l-8 -23 -4 23 c-2 12 -9
19 -15 16 -7 -4 -8 2 -3 17 18 57 45 108 62 118 21 12 184 15 165 2z m55 3
c-3 -3 -12 -4 -19 -1 -8 3 -5 6 6 6 11 1 17 -2 13 -5z m213 -2 c0 -17 -13 -22
-27 -10 -7 6 -16 8 -20 4 -3 -3 -1 -6 6 -6 7 0 10 -4 6 -10 -8 -13 -35 -1 -35
16 0 9 12 14 35 14 19 0 35 -4 35 -8z m1135 -2 l-30 -7 28 -7 c30 -9 35 -21
11 -30 -41 -16 -384 1 -384 19 0 7 -19 17 -42 22 -33 8 14 11 202 11 135 0
232 -4 215 -8z m-1310 -100 c6 -10 -28 -85 -53 -112 -8 -10 -28 -18 -46 -17
-29 0 -29 1 -9 11 12 6 23 18 26 27 3 9 8 24 12 34 5 12 2 17 -10 17 -24 0
-67 -51 -61 -72 2 -9 -3 -19 -11 -22 -11 -4 -13 -2 -9 9 4 10 -1 15 -14 15
-11 0 -20 7 -20 15 0 20 -26 19 -34 -1 -4 -9 -9 -15 -12 -12 -6 7 37 100 51
110 15 11 183 10 190 -2z m373 -7 c-2 -9 -9 -18 -17 -21 -8 -3 -11 0 -7 7 5 7
1 9 -8 5 -9 -3 -16 -1 -16 4 0 9 16 17 43 21 5 0 7 -7 5 -16z m166 9 c3 -5 -8
-27 -23 -51 -26 -39 -30 -41 -45 -26 -19 20 -19 15 0 53 11 23 23 32 39 32 13
0 26 -4 29 -8z m238 2 c3 -3 4 -14 1 -24 -4 -15 -16 -20 -56 -22 -29 -2 -52
-8 -55 -15 -2 -8 5 -13 17 -13 12 0 21 -6 21 -15 0 -9 -9 -15 -22 -15 -30 0
-52 -15 -44 -29 4 -6 21 -11 37 -11 24 0 30 -4 27 -17 -5 -26 -43 -28 -67 -4
-12 12 -28 21 -36 21 -8 0 -15 5 -15 11 0 8 -5 7 -16 -1 -12 -11 -15 -11 -12
1 2 8 -3 13 -9 12 -18 -4 -16 12 8 60 34 67 34 67 129 67 47 0 89 -3 92 -6z
m226 -9 c13 0 22 -6 22 -15 0 -23 -39 -92 -62 -113 -16 -13 -18 -21 -10 -29 7
-7 12 -16 12 -20 0 -14 -57 -8 -70 7 -7 8 -23 15 -35 15 -13 0 -25 -7 -29 -15
-7 -20 -86 -21 -86 -1 0 22 29 87 62 138 l30 48 72 -7 c39 -4 81 -7 94 -8z
m289 0 c5 -16 -35 -75 -51 -75 -7 0 -13 8 -12 18 1 13 -8 18 -39 21 -36 3 -37
5 -15 11 19 6 13 8 -27 9 -29 1 -53 5 -53 10 0 17 191 23 197 6z m123 -2 c0
-10 -7 -27 -15 -37 -22 -29 -18 -46 10 -46 18 0 31 11 50 44 21 36 29 42 50
38 28 -5 28 -20 0 -87 -24 -55 -61 -89 -80 -72 -7 6 -12 16 -12 22 1 5 -5 10
-13 11 -8 0 -28 2 -45 3 l-30 3 25 9 c23 8 22 8 -7 5 -18 -1 -33 1 -33 6 0 5
-4 6 -10 3 -15 -9 -12 1 15 61 23 50 27 54 60 54 27 0 35 -4 35 -17z m-1260
-3 c0 -5 14 -10 30 -10 17 0 30 -4 30 -10 0 -5 7 -10 15 -10 21 0 19 -11 -12
-80 -22 -48 -33 -61 -56 -66 -42 -9 -177 6 -183 19 -2 7 14 47 37 90 l40 77
50 0 c27 0 49 -4 49 -10z m1964 -36 c3 -8 2 -12 -4 -9 -6 3 -10 10 -10 16 0
14 7 11 14 -7z m-1702 -1 c-6 -2 -9 -10 -6 -15 4 -7 2 -8 -4 -4 -18 11 -14 26
6 25 10 0 12 -3 4 -6z m1190 0 c-7 -2 18 -20 54 -38 36 -18 73 -31 82 -28 10
4 13 2 8 -5 -4 -7 -21 -12 -37 -12 -22 0 -32 -7 -41 -25 -10 -23 -16 -25 -80
-25 -37 0 -68 4 -68 9 0 9 28 72 48 109 7 12 20 22 30 21 11 0 12 -2 4 -6z
m-482 -13 c18 -2 20 -4 8 -7 -10 -2 -18 -9 -18 -15 0 -6 9 -8 20 -5 15 4 20 0
20 -13 0 -25 21 -31 45 -11 17 14 18 14 7 0 -6 -9 -9 -19 -5 -22 3 -4 -9 -7
-29 -7 -27 0 -37 -5 -46 -25 -10 -23 -17 -25 -72 -25 -33 0 -60 2 -60 5 0 4
50 100 66 127 2 3 12 5 22 3 9 -2 28 -4 42 -5z m-785 -40 c14 0 25 -5 25 -11
0 -7 9 -9 21 -6 15 4 19 2 15 -8 -3 -10 0 -12 11 -8 11 5 14 3 9 -6 -6 -9 -1
-12 15 -9 17 2 23 9 21 23 -2 15 0 16 6 7 6 -9 5 -23 -2 -38 -9 -20 -18 -24
-53 -24 -24 0 -43 5 -43 10 0 15 -26 12 -39 -4 -17 -20 -86 -15 -85 5 1 8 14
34 29 59 23 36 29 41 37 27 5 -10 20 -17 33 -17z m1582 24 c-3 -3 -12 -4 -19
-1 -8 3 -5 6 6 6 11 1 17 -2 13 -5z m-613 -68 c-3 -8 -1 -17 5 -21 6 -3 11 0
11 7 0 10 3 9 9 -2 14 -21 4 -30 -35 -30 -35 0 -42 12 -24 40 8 12 10 12 10
-5 1 -18 2 -18 10 3 5 12 12 22 14 22 3 0 3 -6 0 -14z m555 -24 c21 2 37 0 35
-4 -6 -10 -108 -11 -117 -1 -4 3 -1 13 5 20 10 13 14 12 24 -2 9 -13 24 -16
53 -13z m-1344 -2 c3 -5 1 -10 -4 -10 -6 0 -11 5 -11 10 0 6 2 10 4 10 3 0 8
-4 11 -10z m78 -7 c-13 -2 -33 -2 -45 0 -13 2 -3 4 22 4 25 0 35 -2 23 -4z
m-188 -63 c4 -6 1 -24 -7 -40 -12 -29 -16 -30 -75 -30 -34 0 -69 -3 -79 -7
-13 -5 -15 -3 -9 7 6 10 4 12 -8 7 -11 -4 -17 -1 -17 7 0 8 -5 16 -11 18 -5 2
-7 11 -4 20 5 12 21 18 53 21 99 8 151 7 157 -3z m152 -3 c74 3 82 -43 12 -71
-51 -20 -54 -20 -89 6 -48 35 -32 90 20 70 8 -4 34 -5 57 -5z m-417 -7 c0 -5
-9 -10 -19 -10 -11 0 -23 5 -26 10 -4 6 5 10 19 10 14 0 26 -4 26 -10z m790 5
c0 -3 -7 -13 -16 -23 -16 -19 -70 -19 -58 -1 3 5 -12 10 -33 10 -38 1 -38 1
-8 9 35 9 115 12 115 5z m200 -7 c0 -7 -9 -28 -20 -46 -25 -41 -25 -58 0 -65
11 -3 20 -10 20 -17 0 -6 -4 -9 -9 -5 -5 3 -12 -3 -14 -12 -3 -13 -5 -12 -6 5
0 13 -6 20 -11 17 -6 -3 -17 1 -26 9 -8 9 -24 16 -34 16 -10 0 -20 6 -23 14
-3 9 -16 13 -31 12 -31 -4 -32 2 -9 49 l17 35 73 0 c52 0 73 -4 73 -12z m371
5 c28 -5 30 -7 14 -14 -16 -6 -14 -8 12 -8 17 -1 35 -5 38 -11 4 -6 -37 -10
-114 -10 -101 0 -121 -2 -121 -15 0 -8 4 -15 8 -15 14 0 52 -40 52 -54 0 -7
-11 -25 -25 -40 -19 -21 -33 -26 -69 -26 -66 0 -138 21 -131 38 3 7 5 18 5 23
0 5 18 9 40 9 47 0 54 20 15 46 -28 18 -31 35 -13 64 12 18 24 20 134 20 67 0
136 -3 155 -7z m530 -5 c32 -4 27 -25 -6 -34 -13 -3 -101 -4 -196 -2 -126 2
-173 6 -177 16 -2 7 -22 12 -45 13 -36 1 -39 2 -17 9 22 8 377 6 441 -2z
m-1297 -22 c8 3 16 -2 19 -10 4 -10 1 -13 -7 -10 -8 3 -17 1 -21 -5 -3 -6 2
-11 13 -11 15 0 18 -5 15 -24 -7 -36 17 -43 43 -13 28 33 37 34 29 5 -5 -20
-4 -21 7 -7 10 12 16 13 24 5 14 -15 7 -36 -12 -36 -16 0 -19 -26 -4 -35 19
-12 10 -25 -18 -25 -16 0 -39 9 -51 19 -24 21 -46 19 -55 -5 -4 -9 -21 -14
-51 -14 -44 0 -45 1 -39 25 4 14 20 51 36 81 23 42 33 53 40 42 7 -10 8 -8 4
5 -3 11 -3 24 1 30 5 8 9 7 11 -5 2 -9 9 -15 16 -12z m-391 -83 c-7 -2 -19 -2
-25 0 -7 3 -2 5 12 5 14 0 19 -2 13 -5z m252 -3 c11 -18 -19 -64 -47 -71 -31
-8 -111 12 -106 27 2 5 -6 9 -17 9 -29 0 -25 28 5 36 39 11 158 10 165 -1z
m-690 -10 c-3 -5 -12 -10 -18 -10 -7 0 -6 4 3 10 19 12 23 12 15 0z m1063 -30
c28 0 33 -3 22 -10 -13 -8 -12 -10 3 -10 9 0 17 -4 17 -10 0 -5 -25 -10 -55
-10 -60 0 -65 7 -42 57 11 26 12 26 15 5 3 -18 10 -22 40 -22z"/>
<path d="M480 7100 c0 -5 5 -10 11 -10 5 0 7 5 4 10 -3 6 -8 10 -11 10 -2 0
-4 -4 -4 -10z"/>
<path d="M1658 7143 c7 -3 16 -2 19 1 4 3 -2 6 -13 5 -11 0 -14 -3 -6 -6z"/>
<path d="M1542 7115 c-27 -60 4 -78 38 -22 26 41 25 47 -3 47 -16 0 -28 -9
-35 -25z"/>
<path d="M792 7143 c-20 -8 -45 -64 -34 -75 12 -12 75 49 69 66 -4 12 -18 16
-35 9z"/>
<path d="M5553 6967 c-75 -81 -132 -192 -170 -332 -23 -84 -27 -120 -27 -231
l-1 -132 -135 4 c-74 2 -138 4 -143 4 -4 0 4 21 17 48 26 52 93 118 174 172
51 35 64 50 40 50 -7 0 -69 7 -138 15 -465 55 -919 -49 -1135 -260 -47 -46
-82 -91 -101 -130 -26 -54 -29 -70 -29 -160 0 -91 3 -105 29 -155 15 -30 53
-78 83 -108 l55 -53 -68 -73 c-104 -109 -159 -185 -218 -301 -130 -256 -153
-577 -60 -837 63 -175 192 -372 320 -485 35 -32 64 -61 64 -65 0 -3 -18 -9
-39 -13 -107 -18 -236 -111 -277 -200 -31 -65 -30 -118 2 -183 33 -66 87 -113
191 -164 72 -36 92 -41 170 -45 l89 -6 25 -46 c34 -65 125 -177 197 -242 93
-84 201 -158 372 -254 265 -150 294 -168 342 -213 54 -51 94 -125 104 -194 10
-77 -11 -139 -77 -227 -33 -43 -59 -81 -59 -84 0 -8 147 45 229 84 240 111
421 326 511 604 50 158 64 252 64 445 0 184 -20 327 -63 453 l-19 55 94 47
c352 176 614 480 700 810 30 116 43 325 26 415 -6 31 -7 59 -2 64 5 5 73 10
152 11 189 2 256 23 312 98 28 38 29 145 3 198 -49 99 -198 197 -313 207 -103
8 -201 -48 -260 -147 -10 -17 -21 -31 -24 -31 -3 0 -28 35 -56 78 l-51 78 46
50 c93 101 136 233 112 346 -42 204 -186 335 -548 498 -76 35 -167 82 -203
105 -155 99 -225 218 -238 404 l-7 94 -62 -66z m-78 -996 c132 -20 341 -90
450 -150 168 -93 233 -141 343 -252 81 -81 217 -268 210 -288 -2 -5 -16 -4
-34 4 -21 9 -47 37 -78 84 -96 148 -286 318 -449 400 -77 38 -207 77 -207 61
0 -3 17 -20 37 -36 96 -75 238 -212 302 -291 38 -48 68 -89 66 -91 -1 -2 -59
10 -126 27 -140 34 -302 60 -432 68 -101 7 -84 -7 -178 153 -80 139 -176 270
-196 270 -21 -1 -126 -148 -210 -296 l-69 -119 -99 -7 c-137 -10 -274 -33
-418 -68 -67 -16 -126 -30 -130 -30 -32 0 195 246 317 345 47 37 83 71 81 75
-8 12 -156 -34 -220 -68 -80 -44 -206 -138 -284 -215 -61 -59 -181 -210 -181
-227 0 -10 -38 -35 -68 -44 -22 -7 -21 -6 8 45 65 109 115 173 200 258 191
189 445 321 738 382 168 36 436 40 627 10z m-200 -232 c24 -36 69 -111 100
-167 51 -92 60 -102 90 -108 l34 -6 -38 -52 c-92 -122 -140 -262 -148 -433
-24 -479 277 -812 716 -791 162 8 291 59 404 158 20 18 37 29 37 26 0 -3 -16
-32 -37 -63 -226 -356 -657 -594 -1128 -621 -484 -29 -918 124 -1215 427 -70
72 -171 205 -187 248 -4 10 16 -2 48 -29 190 -162 502 -195 736 -77 225 114
355 334 370 632 11 199 -41 381 -148 525 -22 28 -36 53 -32 53 4 1 13 2 18 4
6 1 18 3 27 3 10 1 34 34 59 80 57 103 115 195 163 261 l40 53 23 -28 c13 -16
43 -59 68 -95z m1645 -285 c75 -35 117 -69 151 -122 53 -83 31 -154 -54 -181
-18 -6 -97 -12 -177 -15 -80 -2 -152 -7 -161 -11 -13 -5 -22 9 -43 69 -14 41
-26 79 -26 85 0 21 39 89 72 126 67 77 144 93 238 49z m-2302 -129 c79 -33
125 -106 125 -196 0 -157 -162 -256 -302 -184 -57 28 -83 58 -107 122 -15 39
-16 53 -6 101 28 135 165 209 290 157z m1308 -4 c144 -65 160 -271 28 -364
-95 -67 -236 -36 -298 66 -51 83 -35 198 36 264 57 53 159 68 234 34z m-2034
-128 c-42 -80 -57 -151 -57 -263 0 -69 5 -133 14 -160 77 -254 220 -408 444
-478 62 -19 230 -21 297 -2 69 18 201 85 238 120 17 17 32 26 32 19 0 -18 -81
-90 -143 -127 -30 -18 -88 -45 -129 -60 -65 -23 -88 -26 -208 -27 -116 0 -145
3 -205 23 -102 34 -172 77 -242 149 -108 111 -153 243 -153 446 0 152 41 345
78 366 28 17 44 14 34 -6z m2620 5 c36 -29 78 -221 78 -358 0 -179 -34 -300
-117 -413 -157 -213 -516 -282 -780 -149 -69 35 -162 108 -188 149 -17 25 -14
24 26 -10 44 -38 185 -114 227 -122 158 -30 245 -28 358 11 184 62 334 231
400 449 29 96 24 268 -10 368 -14 43 -26 80 -26 82 0 9 16 5 32 -7z m-2223
-1375 c33 -21 60 -40 60 -43 0 -3 -14 -12 -32 -20 -38 -18 -77 -73 -77 -110 0
-15 17 -51 40 -83 22 -30 40 -64 40 -74 -1 -45 -67 -83 -145 -83 -75 0 -211
55 -262 105 -31 31 -63 91 -63 117 0 111 166 225 332 227 38 1 59 -6 107 -36z
m270 -137 c32 -13 80 -29 107 -36 46 -12 50 -15 73 -69 14 -31 54 -119 91
-196 53 -111 75 -148 109 -177 74 -65 155 -64 215 2 19 22 37 36 40 32 6 -10
-9 -81 -35 -160 -16 -47 -20 -81 -17 -128 3 -57 8 -69 36 -97 30 -30 37 -32
100 -32 60 0 72 3 115 34 129 94 226 293 305 631 11 47 23 104 27 127 5 34 12
43 35 51 27 10 28 9 48 -52 69 -210 79 -512 23 -732 l-17 -68 -28 87 c-16 48
-32 84 -38 81 -5 -3 -6 -14 -3 -24 3 -10 12 -71 20 -136 l13 -118 -35 -71
c-78 -155 -203 -294 -326 -361 l-50 -27 7 34 c15 75 19 230 6 306 -18 115 -29
123 -30 21 0 -49 -3 -88 -7 -88 -5 0 -21 20 -36 45 -30 48 -111 123 -156 146
-14 8 -28 17 -31 20 -3 4 -24 16 -48 28 -24 12 -46 29 -49 37 -3 9 -1 79 5
157 7 77 10 142 8 144 -7 7 -46 -126 -57 -197 -7 -41 -13 -76 -14 -78 -3 -3
-149 75 -195 105 -110 71 -160 110 -160 124 0 22 50 261 58 273 3 5 0 6 -6 2
-16 -10 -57 -102 -78 -173 -9 -32 -19 -61 -23 -65 -14 -16 -145 126 -200 216
l-33 55 37 43 c34 40 36 47 33 96 -3 34 -12 62 -26 80 -49 61 -54 70 -44 89
26 45 142 55 231 19z m474 -362 c73 -28 84 -48 38 -71 -32 -16 -71 4 -100 50
-35 56 -33 57 62 21z m364 -136 c53 -19 93 -39 93 -46 0 -17 -26 -66 -62 -119
-25 -37 -34 -43 -64 -43 -38 0 -112 33 -120 53 -2 7 2 31 10 54 8 23 18 62 21
87 4 25 12 46 19 46 6 0 53 -15 103 -32z m-104 -238 c44 -17 47 -27 10 -36
-20 -6 -31 -2 -45 16 -18 22 -24 45 -10 38 4 -2 24 -10 45 -18z"/>
<path d="M5366 4206 c-11 -58 -66 -155 -104 -184 -49 -37 -119 -38 -157 -2
-42 39 -67 78 -92 144 l-24 61 5 -59 c9 -112 79 -210 160 -223 119 -19 205 73
223 240 6 62 -1 78 -11 23z"/>
<path d="M2716 6529 c-4 -28 -5 -54 -1 -57 3 -3 5 8 6 24 1 29 1 29 9 4 6 -17
7 -9 3 25 -3 28 -7 51 -8 53 -1 1 -5 -21 -9 -49z"/>
<path d="M2741 6444 c0 -11 3 -14 6 -6 3 7 2 16 -1 19 -3 4 -6 -2 -5 -13z"/>
<path d="M2701 6414 c0 -11 3 -14 6 -6 3 7 2 16 -1 19 -3 4 -6 -2 -5 -13z"/>
<path d="M2307 6375 c18 -25 33 -32 33 -17 0 10 -33 42 -44 42 -4 0 1 -11 11
-25z"/>
<path d="M2751 6384 c0 -11 3 -14 6 -6 3 7 2 16 -1 19 -3 4 -6 -2 -5 -13z"/>
<path d="M3123 6377 c-13 -12 -19 -27 -15 -34 5 -7 15 0 30 23 25 38 18 44
-15 11z"/>
<path d="M2346 6327 c3 -10 9 -15 12 -12 3 3 0 11 -7 18 -10 9 -11 8 -5 -6z"/>
<path d="M3026 6305 c-25 -20 -46 -38 -46 -41 0 -5 63 41 95 68 26 23 -8 3
-49 -27z"/>
<path d="M2761 6304 c0 -11 3 -14 6 -6 3 7 2 16 -1 19 -3 4 -6 -2 -5 -13z"/>
<path d="M3059 6273 c-13 -16 -12 -17 4 -4 9 7 17 15 17 17 0 8 -8 3 -21 -13z"/>
<path d="M2396 6257 c3 -10 9 -15 12 -12 3 3 0 11 -7 18 -10 9 -11 8 -5 -6z"/>
<path d="M2672 6220 c0 -14 2 -19 5 -12 2 6 2 18 0 25 -3 6 -5 1 -5 -13z"/>
<path d="M2458 6013 c7 -3 16 -2 19 1 4 3 -2 6 -13 5 -11 0 -14 -3 -6 -6z"/>
<path d="M2978 6013 c6 -2 18 -2 25 0 6 3 1 5 -13 5 -14 0 -19 -2 -12 -5z"/>
<path d="M2398 6003 c7 -3 16 -2 19 1 4 3 -2 6 -13 5 -11 0 -14 -3 -6 -6z"/>
<path d="M3048 6003 c7 -3 16 -2 19 1 4 3 -2 6 -13 5 -11 0 -14 -3 -6 -6z"/>
<path d="M2303 5993 c9 -2 23 -2 30 0 6 3 -1 5 -18 5 -16 0 -22 -2 -12 -5z"/>
<path d="M3123 5993 c9 -2 23 -2 30 0 6 3 -1 5 -18 5 -16 0 -22 -2 -12 -5z"/>
<path d="M2218 5983 c6 -2 18 -2 25 0 6 3 1 5 -13 5 -14 0 -19 -2 -12 -5z"/>
<path d="M3198 5983 c6 -2 18 -2 25 0 6 3 1 5 -13 5 -14 0 -19 -2 -12 -5z"/>
<path d="M2140 5970 c-20 -6 -21 -8 -5 -8 11 0 29 3 40 8 25 11 -1 11 -35 0z"/>
<path d="M3275 5970 c4 -6 -7 -10 -26 -10 -18 0 -30 -3 -27 -6 4 -3 33 -2 65
2 47 6 53 9 33 15 -37 10 -52 10 -45 -1z"/>
<path d="M2215 5949 c22 -4 54 -8 70 -7 22 0 19 3 -15 9 -60 10 -108 9 -55 -2z"/>
<path d="M3168 5943 c6 -2 18 -2 25 0 6 3 1 5 -13 5 -14 0 -19 -2 -12 -5z"/>
<path d="M3098 5933 c7 -3 16 -2 19 1 4 3 -2 6 -13 5 -11 0 -14 -3 -6 -6z"/>
<path d="M2671 5724 c0 -11 3 -14 6 -6 3 7 2 16 -1 19 -3 4 -6 -2 -5 -13z"/>
<path d="M2386 5665 c-9 -14 -13 -25 -8 -25 5 0 14 11 20 25 6 14 10 25 8 25
-2 0 -11 -11 -20 -25z"/>
<path d="M2681 5664 c0 -11 3 -14 6 -6 3 7 2 16 -1 19 -3 4 -6 -2 -5 -13z"/>
<path d="M2761 5614 c0 -11 3 -14 6 -6 3 7 2 16 -1 19 -3 4 -6 -2 -5 -13z"/>
<path d="M2370 5600 c-14 -11 -30 -20 -36 -20 -13 0 -39 -28 -32 -35 2 -2 28
13 57 35 29 22 49 40 45 40 -5 0 -20 -9 -34 -20z"/>
<path d="M3090 5616 c0 -2 8 -10 18 -17 15 -13 16 -12 3 4 -13 16 -21 21 -21
13z"/>
<path d="M3060 5606 c0 -3 9 -10 20 -16 11 -6 20 -8 20 -6 0 3 -9 10 -20 16
-11 6 -20 8 -20 6z"/>
<path d="M2691 5584 c0 -11 3 -14 6 -6 3 7 2 16 -1 19 -3 4 -6 -2 -5 -13z"/>
<path d="M2752 5560 c0 -14 2 -19 5 -12 2 6 2 18 0 25 -3 6 -5 1 -5 -13z"/>
<path d="M3117 5573 c-4 -3 2 -13 14 -21 26 -18 35 -10 11 11 -10 10 -22 14
-25 10z"/>
<path d="M2741 5504 c0 -11 3 -14 6 -6 3 7 2 16 -1 19 -3 4 -6 -2 -5 -13z"/>
<path d="M2712 5445 c0 -11 3 -38 7 -60 6 -28 9 -32 10 -15 1 14 4 36 6 50 5
21 4 22 -4 5 -8 -18 -9 -17 -13 10 -3 17 -5 21 -6 10z"/>
<path d="M8505 5304 c-180 -28 -315 -70 -483 -150 -290 -137 -537 -377 -656
-635 -38 -82 -86 -239 -86 -280 0 -15 -7 -29 -16 -33 -33 -12 -101 -5 -138 15
-21 11 -40 18 -42 16 -7 -7 25 -154 52 -237 13 -41 24 -78 24 -82 0 -3 -22
-14 -49 -23 -150 -50 -287 -230 -265 -352 10 -59 49 -112 100 -134 71 -32 129
-34 243 -10 131 28 206 29 259 2 22 -11 75 -56 118 -99 125 -124 238 -214 351
-278 29 -16 53 -33 53 -39 0 -5 -22 -34 -48 -64 l-48 -54 -90 -1 c-105 -2
-142 -17 -217 -92 -67 -68 -99 -138 -105 -230 -6 -97 13 -149 75 -204 l46 -41
-21 -27 c-93 -118 -207 -280 -224 -319 -33 -73 -30 -165 5 -226 40 -67 94
-100 172 -105 133 -9 199 35 343 223 59 77 184 244 277 370 93 127 201 273
239 326 39 52 97 133 130 180 l58 84 222 1 c186 0 238 4 326 22 58 12 119 22
136 22 61 0 134 -36 134 -66 0 -7 -14 -29 -30 -48 -70 -79 -74 -152 -11 -215
74 -74 215 -90 344 -41 81 31 176 97 212 148 27 40 30 51 30 120 0 66 -4 83
-26 117 -36 56 -100 111 -164 142 -30 15 -55 30 -55 33 0 3 21 18 48 35 129
81 349 293 456 437 l57 78 -3 423 -3 424 -52 104 c-201 404 -624 686 -1145
764 -123 19 -410 18 -533 -1z m716 -231 c72 -76 150 -187 197 -282 27 -53 51
-102 53 -110 3 -7 46 -21 104 -33 114 -22 346 -98 348 -113 1 -10 -477 -234
-499 -235 -13 0 -19 29 -30 135 -10 101 -22 56 -23 -83 -1 -126 2 -132 62
-107 20 8 41 15 47 15 6 0 10 -33 10 -84 0 -245 158 -556 331 -651 45 -25 66
-30 121 -30 42 0 64 -4 59 -10 -336 -472 -998 -690 -1625 -534 -461 114 -826
422 -949 799 -42 128 -41 141 4 61 49 -88 158 -200 241 -249 146 -87 294 -125
473 -125 292 1 533 121 704 353 96 129 146 259 164 432 l12 108 90 -54 c62
-37 92 -51 97 -43 10 15 8 193 -1 227 -7 23 -8 21 -14 -15 -4 -22 -7 -57 -7
-77 0 -71 -4 -72 -93 -16 -126 79 -291 181 -405 249 -56 34 -101 64 -98 66 3
3 317 32 359 33 24 0 78 200 97 360 19 157 12 148 78 96 31 -24 73 -61 93 -83z
m-521 -542 c123 -75 176 -114 178 -128 5 -30 -57 -105 -113 -135 -116 -64
-269 -7 -322 119 -16 40 -17 133 -1 170 21 48 49 83 66 82 9 0 96 -49 192
-108z m-810 -33 c0 -2 -7 -28 -15 -58 -50 -185 22 -413 174 -554 104 -98 234
-148 386 -148 134 -1 187 15 341 100 13 7 50 43 84 80 66 72 68 60 7 -43 -42
-70 -131 -172 -202 -234 -64 -54 -207 -125 -310 -152 -119 -31 -306 -29 -437
5 -259 66 -435 221 -513 451 -36 108 -32 308 8 346 23 22 150 89 214 113 21 8
83 32 138 54 89 36 125 47 125 40z m2158 -17 c49 -25 67 -46 86 -104 55 -165
-45 -313 -170 -249 -84 43 -128 122 -129 229 l0 74 75 34 c88 41 90 41 138 16z
m-365 -238 c7 -132 33 -232 87 -338 77 -153 175 -234 269 -221 24 3 53 14 63
23 18 16 19 16 9 -7 -28 -73 -43 -98 -73 -128 -41 -39 -84 -53 -132 -42 -198
44 -386 375 -386 677 l0 74 73 34 c39 19 75 34 78 34 3 1 9 -47 12 -106z
m-2438 -500 c26 -49 69 -120 96 -160 27 -40 49 -75 49 -78 0 -3 -24 -5 -52 -5
-29 0 -100 -9 -158 -21 -66 -12 -121 -18 -147 -14 -51 7 -99 44 -106 82 -17
88 89 229 202 269 62 22 66 20 116 -73z m2387 -783 c78 -24 152 -75 190 -131
64 -96 19 -186 -131 -256 -120 -57 -231 -54 -292 7 -25 25 -27 31 -18 58 5 16
23 42 39 57 53 51 52 126 -3 178 -18 17 -27 32 -22 34 6 2 44 19 85 38 41 19
78 35 81 35 4 0 36 -9 71 -20z m-1514 -36 c60 -26 178 -62 260 -80 42 -9 79
-18 81 -20 2 -1 -12 -23 -29 -48 -37 -51 -22 -51 -180 -9 -110 29 -250 84
-250 98 0 11 61 75 72 75 5 0 25 -7 46 -16z m-299 -150 c57 -23 76 -56 76
-134 0 -51 -6 -75 -25 -110 -21 -37 -30 -44 -50 -41 -68 9 -162 88 -195 162
-18 39 -18 39 6 65 25 27 67 52 109 65 36 11 36 11 79 -7z m-64 -311 c25 -10
45 -20 45 -23 -1 -3 -13 -14 -27 -24 -71 -52 -153 0 -153 95 l0 51 46 -40 c25
-22 65 -49 89 -59z m320 67 c33 -11 79 -24 103 -30 l43 -11 -23 -32 c-133
-181 -120 -168 -157 -162 -18 4 -52 15 -75 25 -22 10 -56 24 -73 30 -18 7 -33
15 -33 19 0 3 13 19 30 34 16 15 44 57 61 93 24 49 36 63 48 59 9 -4 43 -15
76 -25z m-169 -256 c66 -25 120 -47 122 -49 4 -3 -218 -306 -250 -341 -19 -21
-21 -21 -76 -7 -61 16 -214 87 -231 106 -7 9 24 56 104 162 97 128 118 151
151 161 56 17 51 18 180 -32z m-204 -444 c31 0 29 -18 -4 -43 -71 -54 -130
-47 -159 17 -10 22 -19 53 -19 67 l0 26 83 -33 c45 -19 90 -34 99 -34z"/>
<path d="M9191 3648 c-86 -24 -197 -107 -241 -181 -33 -54 -23 -51 44 10 117
107 265 163 310 118 23 -24 30 -82 18 -149 -6 -33 -10 -61 -8 -63 2 -2 13 24
25 58 20 61 27 141 15 174 -15 39 -90 54 -163 33z"/>
<path d="M1255 5159 c-184 -25 -380 -86 -552 -172 l-86 -44 -75 30 c-72 27
-83 29 -197 25 -114 -3 -124 -5 -198 -40 -42 -20 -93 -49 -112 -64 -33 -25
-35 -30 -35 -86 l0 -60 47 47 c26 25 81 63 121 83 66 32 85 37 167 40 66 3
108 0 149 -12 l58 -17 -81 -60 c-131 -98 -275 -270 -352 -422 -17 -32 -45
-103 -63 -157 -18 -55 -37 -96 -41 -92 -3 4 -5 -99 -3 -228 4 -224 6 -239 32
-320 80 -244 247 -475 459 -633 l68 -51 -38 -14 c-63 -25 -142 -82 -179 -130
-108 -142 -45 -296 165 -400 72 -36 79 -37 180 -37 94 0 111 3 149 25 83 47
108 141 57 211 -57 78 -57 101 0 124 46 20 105 18 193 -5 117 -31 281 -50 432
-50 l140 0 42 -67 c161 -257 704 -1056 739 -1088 159 -143 373 -99 420 88 23
92 -9 171 -150 375 -50 73 -91 136 -91 140 0 4 15 14 33 23 44 22 85 84 97
149 26 140 -63 311 -195 376 -47 23 -64 26 -126 22 l-70 -4 -51 69 c-28 37
-49 69 -47 71 2 1 36 20 74 41 117 64 204 127 325 235 169 151 190 157 387
119 161 -31 248 -17 310 49 34 36 45 68 44 126 0 149 -185 329 -339 330 -53 1
-53 1 -50 31 3 30 3 30 53 25 166 -17 344 4 483 57 107 40 312 148 312 164 0
3 -33 12 -73 18 -89 14 -160 46 -209 94 -76 74 -106 168 -118 378 -6 116 -14
168 -29 210 -64 171 -217 300 -398 335 -167 33 -327 -14 -467 -137 l-47 -42
-22 20 c-73 65 -293 176 -448 227 -184 60 -298 78 -524 82 -110 1 -231 -2
-270 -7z m474 -105 c242 -35 469 -118 646 -237 99 -66 97 -63 75 -106 -49 -97
-64 -261 -35 -376 9 -33 31 -93 50 -134 19 -40 35 -76 35 -79 0 -13 -275 10
-390 33 -417 86 -731 287 -920 588 l-42 67 -70 -65 c-158 -146 -396 -270 -660
-344 -113 -31 -208 -46 -208 -33 0 15 69 123 120 187 71 89 188 195 284 259
202 134 390 201 696 249 68 11 322 6 419 -9z m1282 -114 c162 -31 305 -155
351 -305 5 -16 13 -95 18 -175 15 -246 70 -379 191 -461 32 -21 63 -39 68 -39
53 0 -87 -64 -224 -102 -64 -17 -107 -22 -210 -22 -154 0 -216 14 -355 81 -79
38 -108 59 -181 132 -130 130 -191 265 -192 426 -1 219 140 403 353 459 67 18
110 19 181 6z m-1827 -270 c38 -60 183 -216 241 -259 27 -20 28 -24 15 -44
-100 -157 -148 -334 -137 -510 25 -409 340 -740 747 -787 175 -20 390 20 516
96 66 39 54 19 -31 -56 -128 -112 -330 -225 -506 -284 -163 -54 -286 -71 -509
-71 -175 0 -222 4 -319 23 -296 60 -558 192 -752 379 -50 49 -100 101 -112
117 l-21 29 28 -7 c37 -9 131 19 176 52 129 96 225 302 259 555 16 118 14 339
-5 437 -9 47 -18 97 -21 113 -3 15 -1 27 4 27 30 0 268 155 352 229 13 11 27
21 30 21 3 0 23 -27 45 -60z m-449 -302 c37 -165 27 -428 -24 -626 -72 -277
-252 -459 -392 -396 -22 9 -39 20 -39 24 0 3 -8 15 -18 26 -9 10 -32 51 -51
89 -18 39 -37 78 -42 87 -15 29 -10 30 14 4 31 -34 95 -66 135 -66 50 0 93 22
139 73 126 137 185 415 149 696 -9 68 -15 124 -14 125 17 9 105 44 113 45 6 1
19 -36 30 -81z m808 -37 c59 -40 198 -109 287 -142 l75 -27 -4 -44 c-4 -59
-32 -108 -85 -155 -123 -109 -312 -75 -392 69 -23 44 -28 65 -28 123 0 78 16
119 67 173 17 17 33 32 35 32 2 0 22 -13 45 -29z m-1094 -26 c18 -52 19 -169
1 -220 -54 -160 -187 -181 -258 -42 -28 54 -40 168 -25 227 8 29 15 36 44 42
19 4 66 14 104 21 105 22 117 19 134 -28z m2097 -250 c9 -8 12 -21 8 -27 -4
-7 -4 -10 1 -6 4 4 36 -19 71 -51 40 -37 102 -78 166 -111 57 -29 106 -56 111
-59 12 -12 -19 -151 -56 -249 -70 -186 -166 -296 -329 -376 -115 -57 -207 -76
-372 -76 -201 0 -332 43 -485 161 -118 90 -203 200 -266 344 -29 65 -20 65 14
0 12 -22 21 -36 21 -31 0 5 10 -4 22 -20 30 -39 85 -89 117 -106 14 -7 32 -18
38 -25 23 -21 124 -53 202 -64 290 -41 543 117 637 398 24 71 26 89 22 196
l-4 117 34 0 c18 0 40 -7 48 -15z m598 -452 c99 -50 176 -152 176 -235 0 -39
-5 -50 -30 -72 -44 -36 -103 -42 -213 -20 -51 10 -125 18 -164 19 -40 0 -72 2
-70 5 1 3 21 39 43 80 23 41 54 110 70 152 22 60 34 80 54 88 31 12 92 4 134
-17z m-2379 -784 l86 -42 -28 -18 c-28 -19 -63 -72 -63 -97 0 -19 29 -72 57
-106 32 -38 28 -82 -10 -110 -24 -18 -43 -21 -115 -21 -73 0 -96 4 -144 27
-80 37 -134 83 -159 135 -19 40 -20 49 -9 86 21 73 86 129 195 168 72 26 93
24 190 -22z m1431 -96 c15 -21 32 -40 38 -42 28 -12 -163 -71 -337 -105 l-69
-13 -26 41 c-15 23 -31 44 -35 47 -5 4 4 9 19 12 104 19 229 44 229 47 0 2
131 48 141 49 7 1 24 -16 40 -36z m338 -166 c22 -12 48 -34 59 -49 19 -25 19
-30 6 -54 -42 -79 -153 -164 -215 -164 -49 0 -82 162 -47 230 36 70 112 84
197 37z m-230 -331 c41 -60 43 -66 19 -67 -10 0 -56 -13 -103 -29 -78 -26 -86
-27 -98 -12 -7 9 -19 25 -27 35 -8 9 -15 19 -15 22 0 3 -18 32 -40 64 -45 66
-48 76 -21 78 29 2 151 34 185 48 l30 13 16 -49 c10 -28 34 -74 54 -103z m287
107 c4 -68 -21 -118 -67 -133 -36 -12 -70 -2 -96 27 -17 19 -16 20 35 41 29
12 66 35 82 51 36 34 45 37 46 14z m-119 -225 c35 -10 49 -26 144 -164 57 -84
104 -157 104 -163 0 -24 -218 -111 -278 -111 -26 0 -39 15 -148 178 -65 97
-119 181 -119 186 0 10 208 84 239 85 10 1 36 -4 58 -11z m183 -475 c-16 -87
-104 -112 -173 -49 -27 26 -33 36 -22 39 8 2 56 18 105 34 50 16 92 25 94 20
1 -4 0 -24 -4 -44z"/>
<path d="M1170 3261 c0 -71 -19 -121 -58 -151 -65 -52 -154 -3 -275 150 l-27
35 17 -45 c50 -134 163 -224 256 -205 47 10 94 50 107 91 14 43 9 159 -8 176
-9 9 -12 -2 -12 -51z"/>
<path d="M9713 2233 c9 -2 25 -2 35 0 9 3 1 5 -18 5 -19 0 -27 -2 -17 -5z"/>
<path d="M9805 2220 c17 -7 16 -9 -10 -9 -16 -1 -37 -6 -45 -11 -15 -10 -10
-10 85 6 33 5 37 8 20 14 -11 5 -31 9 -45 9 -23 0 -23 -1 -5 -9z"/>
<path d="M9658 2183 c7 -3 16 -2 19 1 4 3 -2 6 -13 5 -11 0 -14 -3 -6 -6z"/>
<path d="M9508 2163 c6 -2 18 -2 25 0 6 3 1 5 -13 5 -14 0 -19 -2 -12 -5z"/>
<path d="M9540 1887 c0 -2 15 -14 33 -27 20 -15 27 -17 18 -6 -13 16 -51 41
-51 33z"/>
<path d="M9281 1844 c0 -11 3 -14 6 -6 3 7 2 16 -1 19 -3 4 -6 -2 -5 -13z"/>
<path d="M4507 1815 c-13 -60 -27 -161 -26 -190 1 -16 7 3 14 43 6 39 14 74
16 77 3 2 14 -55 24 -128 11 -72 21 -125 22 -117 2 8 -7 89 -20 180 -17 119
-25 157 -30 135z"/>
<path d="M9641 1810 c39 -33 54 -38 38 -12 -7 10 -25 24 -42 30 l-31 12 35
-30z"/>
<path d="M9222 1780 c0 -14 2 -19 5 -12 2 6 2 18 0 25 -3 6 -5 1 -5 -13z"/>
<path d="M9272 1755 c0 -16 2 -22 5 -12 2 9 2 23 0 30 -3 6 -5 -1 -5 -18z"/>
<path d="M9231 1694 c0 -11 3 -14 6 -6 3 7 2 16 -1 19 -3 4 -6 -2 -5 -13z"/>
<path d="M9262 1685 c0 -16 2 -22 5 -12 2 9 2 23 0 30 -3 6 -5 -1 -5 -18z"/>
<path d="M9247 1643 c-11 -10 -8 -43 3 -43 6 0 10 11 10 25 0 26 -2 29 -13 18z"/>
<path d="M5054 1572 c-42 -37 -66 -55 -242 -187 -84 -63 -150 -115 -145 -115
4 0 86 59 182 131 96 71 178 132 183 135 12 8 10 -3 -5 -18 -22 -22 -157 -205
-157 -213 0 -4 36 39 80 96 100 130 143 189 138 194 -1 2 -17 -9 -34 -23z"/>
<path d="M3941 1584 c8 -22 283 -384 291 -384 5 0 -10 25 -34 55 -24 29 -70
90 -103 135 -33 44 -70 93 -82 108 -13 15 -23 31 -23 35 0 10 16 -2 180 -128
144 -110 210 -158 210 -151 0 5 -104 88 -146 116 -29 19 -226 168 -278 210
-11 8 -17 10 -15 4z"/>
<path d="M4456 1454 c-10 -74 -16 -137 -14 -140 3 -2 13 57 23 131 10 75 16
137 13 140 -2 2 -12 -56 -22 -131z"/>
<path d="M4562 1445 c0 -16 3 -50 7 -75 6 -33 9 -37 9 -15 0 17 -3 50 -7 75
-6 33 -9 37 -9 15z"/>
<path d="M4582 1300 c0 -14 2 -19 5 -12 2 6 2 18 0 25 -3 6 -5 1 -5 -13z"/>
<path d="M4432 1270 c0 -19 2 -27 5 -17 2 9 2 25 0 35 -3 9 -5 1 -5 -18z"/>
<path d="M4797 1218 c-29 -40 -61 -85 -71 -100 l-18 -28 33 1 c24 1 27 3 12 6
-13 2 -23 7 -23 11 0 3 26 40 57 81 31 42 61 82 66 89 5 6 7 12 4 12 -4 0 -30
-33 -60 -72z"/>
<path d="M4626 1245 c-10 -8 -23 -12 -27 -9 -5 3 -9 -2 -9 -11 0 -14 4 -13 30
5 17 12 30 23 30 26 0 6 -3 5 -24 -11z"/>
<path d="M4404 1231 c20 -22 26 -25 26 -13 0 4 -10 13 -22 21 -23 14 -23 14
-4 -8z"/>
<path d="M4240 1187 c0 -2 11 -18 25 -37 30 -41 31 -50 5 -50 -11 0 -20 -4
-20 -8 0 -4 15 -6 34 -4 l35 4 -36 49 c-31 43 -43 56 -43 46z"/>
<path d="M8876 1086 c-121 -46 -222 -88 -224 -95 -2 -7 17 -120 43 -252 34
-170 52 -239 61 -239 17 0 204 40 224 47 50 20 140 39 140 30 0 -5 10 1 23 15
18 19 27 49 41 139 18 119 26 230 15 223 -8 -5 -19 32 -19 64 0 12 -4 22 -10
22 -5 0 -7 7 -4 15 4 8 2 21 -4 28 -5 6 -15 29 -21 50 -8 24 -18 37 -29 36 -9
0 -116 -38 -236 -83z m191 -80 c18 -11 33 -26 33 -31 0 -6 -23 -28 -51 -49
-38 -29 -53 -36 -62 -27 -6 6 -26 11 -44 11 -68 0 -98 -76 -48 -125 13 -14 33
-25 43 -25 24 0 72 37 72 56 0 11 15 14 65 14 59 0 65 -2 65 -21 0 -63 -80
-149 -155 -168 -53 -13 -123 -1 -167 30 -94 67 -88 242 10 317 68 52 176 60
239 18z"/>
<path d="M4193 1083 c9 -2 25 -2 35 0 9 3 1 5 -18 5 -19 0 -27 -2 -17 -5z"/>
<path d="M4815 1079 c22 -4 54 -8 70 -7 22 0 19 3 -15 9 -60 10 -108 9 -55 -2z"/>
<path d="M3955 1054 c-88 -12 -169 -23 -180 -24 -11 -1 -15 -4 -9 -6 12 -5
386 44 393 52 7 7 -39 2 -204 -22z"/>
<path d="M4960 1059 c25 -4 59 -7 75 -7 22 0 18 3 -15 9 -25 4 -58 7 -75 7
-22 0 -18 -3 15 -9z"/>
<path d="M5120 1039 c30 -5 75 -13 100 -17 40 -7 27 -10 -125 -32 -93 -14
-162 -26 -152 -28 16 -3 378 46 384 52 4 4 -127 23 -207 30 l-55 5 55 -10z"/>
<path d="M3720 1020 c-25 -7 -25 -7 5 -13 56 -12 275 -39 286 -35 6 2 -47 12
-117 21 -71 10 -133 22 -139 26 -5 4 -21 5 -35 1z"/>
<path d="M9201 984 c0 -11 3 -14 6 -6 3 7 2 16 -1 19 -3 4 -6 -2 -5 -13z"/>
<path d="M4043 963 c9 -2 23 -2 30 0 6 3 -1 5 -18 5 -16 0 -22 -2 -12 -5z"/>
<path d="M4123 953 c9 -2 23 -2 30 0 6 3 -1 5 -18 5 -16 0 -22 -2 -12 -5z"/>
<path d="M4873 953 c9 -2 25 -2 35 0 9 3 1 5 -18 5 -19 0 -27 -2 -17 -5z"/>
<path d="M4193 943 c9 -2 23 -2 30 0 6 3 -1 5 -18 5 -16 0 -22 -2 -12 -5z"/>
<path d="M4755 943 c-47 -10 -47 -12 -14 -58 32 -45 59 -73 59 -62 0 3 -16 24
-35 47 -42 50 -43 60 -10 60 14 0 25 5 25 10 0 6 -1 9 -2 9 -2 -1 -12 -3 -23
-6z"/>
<path d="M4808 943 c6 -2 18 -2 25 0 6 3 1 5 -13 5 -14 0 -19 -2 -12 -5z"/>
<path d="M9513 944 c-8 -3 -13 -25 -14 -52 -1 -85 -3 -86 -109 -21 -52 32 -98
58 -101 58 -6 1 -49 -269 -49 -306 0 -21 5 -23 59 -23 l58 0 6 56 c3 31 8 58
10 60 2 3 53 -25 113 -60 l109 -65 6 32 c4 18 10 94 14 169 4 76 8 141 9 145
1 9 -93 14 -111 7z"/>
<path d="M4263 933 c15 -2 27 -8 27 -12 0 -5 -22 -37 -48 -72 -122 -163 -277
-366 -295 -386 -26 -29 -13 -29 30 -1 18 13 31 29 28 36 -3 7 63 104 146 215
83 111 154 208 156 215 4 8 -6 12 -33 11 -31 -2 -33 -3 -11 -6z"/>
<path d="M395 825 c-3 -26 -4 -49 -2 -52 3 -3 9 16 12 42 4 25 5 48 2 51 -2 3
-8 -16 -12 -41z"/>
<path d="M4333 747 c-45 -34 -88 -69 -95 -77 -17 -18 -9 -13 100 69 54 41 84
58 87 49 2 -7 6 -22 9 -33 2 -11 4 -5 3 14 -1 19 -6 36 -12 37 -5 2 -47 -25
-92 -59z"/>
<path d="M4591 789 c0 -20 2 -21 7 -6 7 16 15 12 67 -29 81 -62 115 -86 115
-80 0 6 -157 126 -175 132 -11 5 -15 -1 -14 -17z"/>
<path d="M4890 690 c51 -69 106 -142 122 -162 36 -47 29 -48 -25 -4 -87 69
-197 146 -197 137 0 -5 13 -17 29 -28 17 -10 82 -58 146 -107 64 -48 118 -87
120 -85 4 5 -238 326 -266 354 -12 11 20 -36 71 -105z"/>
<path d="M412 780 c0 -14 2 -19 5 -12 2 6 2 18 0 25 -3 6 -5 1 -5 -13z"/>
<path d="M4575 705 c-3 -31 -5 -59 -2 -61 3 -3 8 20 12 51 3 31 5 59 2 61 -3
3 -8 -20 -12 -51z"/>
<path d="M9701 734 c0 -11 3 -14 6 -6 3 7 2 16 -1 19 -3 4 -6 -2 -5 -13z"/>
<path d="M422 720 c0 -14 2 -19 5 -12 2 6 2 18 0 25 -3 6 -5 1 -5 -13z"/>
<path d="M4447 638 c7 -51 22 -165 33 -253 21 -163 27 -191 35 -183 6 6 55
380 54 410 -1 21 -6 -10 -39 -244 -12 -84 -30 -120 -30 -60 0 43 -52 406 -60
415 -3 4 0 -34 7 -85z"/>
<path d="M818 676 c-10 -7 -18 -19 -18 -25 0 -7 -5 -9 -12 -5 -6 4 -8 3 -5 -3
4 -6 -2 -22 -13 -36 -11 -14 -20 -28 -20 -32 0 -7 68 77 84 103 9 15 6 15 -16
-2z"/>
<path d="M432 655 c0 -16 2 -22 5 -12 2 9 2 23 0 30 -3 6 -5 -1 -5 -18z"/>
<path d="M371 654 c0 -11 3 -14 6 -6 3 7 2 16 -1 19 -3 4 -6 -2 -5 -13z"/>
<path d="M0 645 c0 -9 6 -12 15 -9 8 4 15 7 15 9 0 2 -7 5 -15 9 -9 3 -15 0
-15 -9z"/>
<path d="M4134 597 c-39 -30 -82 -61 -95 -70 -12 -9 -21 -18 -18 -21 2 -2 48
29 102 70 54 41 95 74 90 74 -4 0 -40 -24 -79 -53z"/>
<path d="M20 616 c0 -2 8 -10 18 -17 15 -13 16 -12 3 4 -13 16 -21 21 -21 13z"/>
<path d="M67 609 c7 -7 15 -10 18 -7 3 3 -2 9 -12 12 -14 6 -15 5 -6 -5z"/>
<path d="M361 574 c0 -11 3 -14 6 -6 3 7 2 16 -1 19 -3 4 -6 -2 -5 -13z"/>
<path d="M441 574 c0 -11 3 -14 6 -6 3 7 2 16 -1 19 -3 4 -6 -2 -5 -13z"/>
<path d="M50 576 c0 -2 8 -10 18 -17 15 -13 16 -12 3 4 -13 16 -21 21 -21 13z"/>
<path d="M9680 573 c0 -6 -3 -18 -6 -27 -4 -10 -1 -16 9 -16 8 0 18 -6 20 -12
3 -8 6 -6 6 5 1 10 -6 17 -16 17 -12 0 -14 3 -6 8 8 5 9 13 3 22 -6 9 -10 10
-10 3z"/>
<path d="M130 566 c0 -3 9 -10 20 -16 11 -6 20 -8 20 -6 0 3 -9 10 -20 16 -11
6 -20 8 -20 6z"/>
<path d="M180 526 c0 -3 9 -10 20 -16 11 -6 20 -8 20 -6 0 3 -9 10 -20 16 -11
6 -20 8 -20 6z"/>
<path d="M351 494 c0 -11 3 -14 6 -6 3 7 2 16 -1 19 -3 4 -6 -2 -5 -13z"/>
<path d="M260 466 c0 -3 9 -10 20 -16 11 -6 20 -8 20 -6 0 3 -9 10 -20 16 -11
6 -20 8 -20 6z"/>
<path d="M8678 449 c-21 -12 -24 -44 -5 -56 10 -7 147 -13 147 -6 0 9 -35 73
-40 73 -4 0 -12 -11 -18 -25 -9 -19 -19 -25 -42 -25 -16 0 -30 5 -30 10 0 6
12 10 26 10 22 0 25 2 14 15 -14 17 -28 18 -52 4z"/>
<path d="M8830 421 c0 -38 13 -56 22 -30 3 8 10 8 25 -2 29 -17 33 -11 24 31
-6 30 -11 35 -39 38 -31 3 -32 2 -32 -37z"/>
<path d="M8910 451 c0 -6 5 -13 10 -16 6 -3 10 -17 10 -31 0 -15 6 -24 15 -24
10 0 15 10 15 33 l1 32 14 -32 c15 -36 43 -43 68 -18 13 13 16 13 27 0 16 -20
39 -19 62 2 17 15 18 15 18 0 0 -19 16 -23 22 -6 3 9 10 9 26 0 21 -11 22 -10
22 29 0 40 -15 54 -26 25 -5 -12 -10 -13 -20 -4 -7 6 -18 8 -23 5 -6 -4 -19
-1 -31 6 -16 10 -24 10 -40 0 -12 -7 -26 -9 -32 -6 -18 12 -138 15 -138 5z
m120 -31 c0 -5 -7 -10 -15 -10 -8 0 -15 5 -15 10 0 6 7 10 15 10 8 0 15 -4 15
-10z m80 0 c0 -5 -4 -10 -10 -10 -5 0 -10 5 -10 10 0 6 5 10 10 10 6 0 10 -4
10 -10z"/>
<path d="M9300 443 c0 -13 -3 -14 -12 -5 -23 23 -38 13 -38 -23 0 -35 23 -51
33 -22 3 9 7 9 19 0 20 -17 28 -7 28 34 0 23 -5 33 -15 33 -8 0 -15 -8 -15
-17z"/>
<path d="M9346 452 c-3 -3 -6 -20 -6 -39 0 -30 3 -33 30 -33 32 0 41 16 13 23
-17 4 -17 5 0 6 22 1 23 21 0 21 -9 0 -14 3 -10 6 3 4 18 4 32 0 18 -5 25 -13
25 -31 0 -14 5 -25 10 -25 6 0 10 11 10 24 0 38 29 42 42 6 8 -24 13 -28 23
-20 10 8 15 7 18 -2 4 -8 8 -5 12 10 9 27 17 28 33 2 13 -21 47 -27 57 -10 5
8 12 7 22 -1 12 -10 17 -10 25 2 7 11 11 11 15 2 2 -7 11 -13 18 -13 14 0 15
46 2 68 -10 14 -53 16 -62 2 -3 -6 -15 -5 -30 2 -21 9 -29 8 -45 -7 -18 -17
-20 -17 -14 -2 7 19 -8 22 -36 7 -12 -7 -21 -7 -25 0 -6 10 -149 12 -159 2z
m274 -32 c0 -5 -4 -10 -10 -10 -5 0 -10 5 -10 10 0 6 5 10 10 10 6 0 10 -4 10
-10z"/>
<path d="M9740 420 c0 -22 5 -40 10 -40 6 0 10 5 10 12 0 9 3 9 12 0 19 -19
41 -15 33 6 -4 9 -7 27 -6 40 1 24 -9 28 -27 10 -9 -9 -12 -9 -12 0 0 7 -4 12
-10 12 -5 0 -10 -18 -10 -40z"/>
<path d="M461 434 c0 -11 3 -14 6 -6 3 7 2 16 -1 19 -3 4 -6 -2 -5 -13z"/>
<path d="M335 420 c-3 -5 -1 -10 4 -10 6 0 11 5 11 10 0 6 -2 10 -4 10 -3 0
-8 -4 -11 -10z"/>
<path d="M9820 390 c0 -5 5 -10 10 -10 6 0 10 5 10 10 0 6 -4 10 -10 10 -5 0
-10 -4 -10 -10z"/>
<path d="M207 363 c-10 -9 -9 -63 1 -63 4 0 13 5 18 10 8 8 15 6 24 -5 28 -34
80 -2 59 37 -11 20 -44 24 -54 7 -5 -7 -13 -5 -24 5 -10 9 -21 13 -24 9z m23
-23 c0 -5 -5 -10 -11 -10 -5 0 -7 5 -4 10 3 6 8 10 11 10 2 0 4 -4 4 -10z m67
-1 c15 -15 5 -39 -17 -39 -22 0 -32 24 -17 39 6 6 14 11 17 11 3 0 11 -5 17
-11z"/>
<path d="M395 338 c-6 -19 -8 -20 -12 -5 -6 22 -19 22 -27 0 -6 -14 -8 -14
-21 3 -13 17 -13 16 -3 -13 12 -33 12 -33 24 -10 11 20 13 20 19 5 10 -26 22
-22 29 8 9 33 1 43 -9 12z"/>
<path d="M420 325 c0 -27 4 -35 18 -35 14 0 15 2 2 10 -12 8 -13 11 -1 19 11
7 11 9 0 14 -12 4 -11 7 1 16 13 9 13 11 -2 11 -14 0 -18 -8 -18 -35z"/>
<path d="M471 323 c0 -21 3 -32 6 -24 4 9 8 10 12 2 4 -6 7 5 8 24 1 24 -3 35
-13 35 -10 0 -14 -12 -13 -37z"/>
<path d="M517 353 c-4 -3 -7 -19 -7 -35 l0 -28 20 20 c11 11 20 27 20 35 0 15
-21 21 -33 8z m23 -13 c0 -5 -5 -10 -11 -10 -5 0 -7 5 -4 10 3 6 8 10 11 10 2
0 4 -4 4 -10z"/>
<path d="M560 331 c0 -36 13 -46 40 -31 13 7 20 7 20 1 0 -6 7 -8 16 -4 13 5
13 7 2 14 -10 7 -10 9 2 9 13 0 13 1 0 10 -13 9 -13 11 0 20 13 8 13 10 -2 10
-9 0 -18 -10 -21 -22 l-4 -23 -2 23 c0 12 -6 22 -12 22 -5 0 -7 -5 -4 -10 8
-13 -3 -50 -15 -50 -5 0 -7 11 -4 24 2 14 0 28 -6 31 -6 4 -10 -6 -10 -24z"/>
<path d="M660 324 c0 -21 4 -33 10 -29 6 4 8 11 5 16 -4 5 0 9 7 9 9 0 9 3 -2
10 -13 9 -13 11 0 20 13 8 12 10 -2 10 -14 0 -18 -8 -18 -36z"/>
<path d="M732 344 c-5 -9 -7 -25 -5 -35 6 -22 77 -36 98 -19 8 6 18 9 22 7 5
-3 9 9 8 26 0 22 -5 33 -17 35 -15 3 -18 -4 -19 -35 l-2 -38 -7 40 -7 40 -2
-37 c0 -21 -5 -38 -10 -38 -5 0 -7 9 -4 20 3 11 0 20 -6 20 -5 0 -8 -7 -4 -16
4 -12 1 -15 -13 -12 -28 5 -30 36 -2 47 23 10 23 10 1 10 -12 1 -26 -6 -31
-15z m118 -4 c0 -5 -5 -10 -11 -10 -5 0 -7 5 -4 10 3 6 8 10 11 10 2 0 4 -4 4
-10z"/>
<path d="M872 328 c-2 -37 -1 -38 33 -38 28 0 35 4 35 19 0 11 -6 22 -12 24
-10 4 -9 8 2 16 13 9 13 11 -2 11 -24 0 -34 -21 -14 -32 24 -13 20 -25 -8 -25
-20 0 -26 5 -29 31 -4 29 -4 29 -5 -6z"/>
<path d="M1110 345 c0 -15 -16 -20 -57 -16 -18 1 -23 -3 -22 -21 1 -17 3 -18
6 -5 5 20 23 23 23 4 0 -7 13 -14 30 -15 28 -2 30 0 30 33 0 19 -2 35 -5 35
-3 0 -5 -7 -5 -15z m0 -35 c0 -5 -4 -10 -10 -10 -5 0 -10 5 -10 10 0 6 5 10
10 10 6 0 10 -4 10 -10z"/>
<path d="M1205 350 c-3 -5 -4 -14 0 -19 5 -9 -24 -31 -39 -31 -17 0 -3 19 17
23 19 5 19 5 -3 4 -39 -3 -32 -32 8 -32 30 -1 32 2 32 32 0 34 -4 40 -15 23z"/>
<path d="M1233 325 c0 -22 2 -30 4 -17 2 12 2 30 0 40 -3 9 -5 -1 -4 -23z"/>
<path d="M1353 325 c0 -22 2 -30 4 -17 2 12 2 30 0 40 -3 9 -5 -1 -4 -23z"/>
<path d="M1507 339 c-18 -20 -64 -17 -79 5 -4 6 -7 -5 -7 -24 0 -29 2 -31 9
-15 6 15 9 16 9 4 1 -12 12 -16 46 -17 45 0 45 0 45 34 0 39 1 39 -23 13z
m-42 -29 c3 -5 1 -10 -4 -10 -6 0 -11 5 -11 10 0 6 2 10 4 10 3 0 8 -4 11 -10z
m50 0 c-3 -5 -10 -10 -16 -10 -5 0 -9 5 -9 10 0 6 7 10 16 10 8 0 12 -4 9 -10z"/>
<path d="M1612 325 c0 -30 1 -35 7 -20 l8 20 5 -20 c5 -18 6 -18 7 3 0 12 -3
22 -8 22 -5 0 -12 8 -14 18 -3 9 -5 -1 -5 -23z"/>
<path d="M2110 345 c0 -8 -7 -15 -15 -15 -8 0 -15 -9 -15 -20 0 -13 7 -20 20
-20 16 0 20 7 20 35 0 19 -2 35 -5 35 -3 0 -5 -7 -5 -15z m0 -35 c0 -5 -4 -10
-10 -10 -5 0 -10 5 -10 10 0 6 5 10 10 10 6 0 10 -4 10 -10z"/>
<path d="M2202 343 c2 -14 -3 -17 -19 -15 -18 3 -23 -2 -23 -17 0 -13 6 -21
18 -21 14 0 15 2 2 10 -12 7 -10 9 7 7 12 0 20 -4 18 -8 -3 -3 9 -6 25 -7 24
0 30 4 30 20 0 15 -5 19 -20 15 -15 -4 -20 0 -20 14 0 10 -5 19 -10 19 -6 0
-10 -8 -8 -17z m48 -33 c0 -5 -5 -10 -11 -10 -5 0 -7 5 -4 10 3 6 8 10 11 10
2 0 4 -4 4 -10z"/>
<path d="M8347 354 c-8 -8 2 -54 16 -71 13 -17 27 -7 28 20 1 22 1 22 7 -1 10
-32 25 -28 38 11 l11 32 10 -34 c11 -41 30 -51 36 -19 l4 23 8 -23 c10 -31 27
-23 38 19 l10 34 9 -32 c11 -41 26 -50 36 -22 l9 23 7 -25 c6 -23 7 -24 21 -5
14 19 21 76 10 76 -3 0 -10 -10 -15 -22 -7 -18 -9 -19 -9 -5 -1 9 -8 17 -16
17 -8 0 -15 -8 -15 -17 -1 -15 -3 -15 -13 3 -12 21 -34 21 -50 0 -6 -8 -10 -7
-14 2 -7 18 -31 15 -36 -5 -4 -15 -5 -16 -6 -2 -2 27 -41 31 -51 6 -7 -17 -9
-18 -9 -4 -1 9 -8 17 -16 17 -8 0 -15 -8 -15 -17 -1 -15 -3 -13 -13 5 -7 12
-16 20 -20 16z"/>
<path d="M8706 345 c-9 -9 -16 -23 -16 -30 0 -18 29 -47 43 -42 6 2 13 9 15
15 2 7 -2 10 -11 6 -8 -3 -17 2 -21 11 -4 12 0 19 14 22 12 3 19 10 17 16 -6
18 -24 19 -41 2z"/>
<path d="M8844 351 c-2 -2 -4 -18 -5 -35 l-1 -31 -14 33 c-8 17 -21 32 -29 32
-16 0 -35 -38 -35 -67 0 -12 3 -13 15 -3 11 9 22 9 45 2 24 -9 31 -8 38 5 8
13 10 13 15 -2 4 -9 11 -13 17 -10 6 4 8 11 5 16 -9 13 5 50 16 44 5 -4 9 -17
9 -31 0 -15 6 -24 15 -24 9 0 15 9 15 24 0 14 5 28 10 31 6 3 10 -5 10 -19 0
-16 8 -30 22 -37 18 -10 24 -8 40 11 13 16 18 18 18 7 0 -21 37 -32 55 -17 22
19 18 58 -7 71 -18 10 -24 8 -40 -11 -13 -16 -18 -18 -18 -7 0 20 -27 29 -49
17 -10 -5 -20 -7 -23 -5 -6 6 -118 11 -124 6z m176 -42 c0 -24 -23 -21 -28 4
-2 10 3 17 12 17 10 0 16 -9 16 -21z m75 1 c0 -7 -6 -15 -12 -17 -8 -3 -13 4
-13 17 0 13 5 20 13 18 6 -3 12 -11 12 -18z"/>
<path d="M9134 347 c-3 -8 -4 -30 -1 -49 4 -30 5 -31 12 -10 7 22 8 22 21 4
14 -21 64 -19 64 2 0 6 4 5 9 -3 10 -15 88 -24 96 -10 3 4 -3 12 -12 18 -17
10 -17 10 -1 11 12 0 15 5 11 16 -4 12 -2 15 8 12 8 -2 16 -15 17 -29 6 -38
22 -47 22 -12 0 43 27 52 37 13 10 -36 26 -40 34 -8 5 22 5 22 12 -4 10 -39
24 -35 36 9 12 43 7 55 -13 28 -12 -17 -13 -17 -20 6 l-6 24 -15 -25 c-11 -19
-14 -21 -15 -7 0 10 -8 17 -22 18 -13 1 -43 3 -68 4 -25 2 -51 -1 -57 -7 -9
-8 -13 -7 -13 3 -1 9 -5 8 -15 -5 -8 -11 -15 -14 -15 -8 0 16 -30 15 -30 0 0
-7 -5 -5 -11 6 -9 14 -13 15 -19 5 -7 -10 -11 -10 -24 0 -13 11 -17 11 -22 -2z
m73 -49 c-3 -8 -6 -5 -6 6 -1 11 2 17 5 13 3 -3 4 -12 1 -19z"/>
<path d="M9525 344 c-9 -9 -14 -23 -11 -31 3 -8 6 -18 6 -23 0 -12 28 -20 45
-14 8 4 15 14 16 23 0 10 4 7 10 -9 8 -19 12 -21 19 -10 6 10 12 11 22 2 12
-9 14 -4 15 26 2 53 -39 74 -57 30 -6 -16 -9 -18 -9 -7 -1 9 -8 20 -17 23 -21
8 -20 8 -39 -10z m35 -34 c0 -11 -4 -20 -9 -20 -11 0 -22 26 -14 34 12 12 23
5 23 -14z"/>
<path d="M9670 360 c-8 -17 -8 -66 0 -79 8 -14 9 -13 10 3 0 17 2 17 18 5 19
-16 52 -19 52 -4 0 5 -8 10 -18 10 -12 0 -16 7 -15 28 1 15 -2 27 -8 27 -5 0
-9 -4 -9 -10 0 -17 -18 -11 -23 8 -3 9 -6 15 -7 12z"/>
<path d="M9776 344 c-11 -10 -14 -24 -10 -38 11 -35 42 -46 52 -18 2 7 -2 10
-12 6 -12 -4 -16 0 -16 15 0 12 6 21 16 21 9 0 14 5 12 12 -7 19 -24 20 -42 2z"/>
<path d="M9840 346 c-15 -19 -9 -56 12 -69 34 -22 66 41 36 71 -16 16 -33 15
-48 -2z m38 -33 c-4 -22 -22 -20 -26 1 -2 10 3 16 13 16 10 0 15 -7 13 -17z"/>
<path d="M9945 348 c-18 -45 18 -95 49 -69 18 15 22 66 6 76 -6 4 -10 -7 -10
-24 0 -17 -4 -31 -10 -31 -5 0 -10 8 -10 18 0 9 -4 24 -10 32 -8 12 -10 12
-15 -2z"/>
<path d="M10057 346 c-9 -10 -17 -13 -17 -7 0 6 -4 11 -10 11 -5 0 -10 -15
-10 -34 0 -19 5 -38 10 -41 6 -3 10 2 10 11 0 16 1 16 20 -1 17 -16 20 -16 20
-2 0 9 -5 19 -10 22 -8 5 -7 11 0 21 19 22 7 40 -13 20z"/>
<path d="M2432 320 c0 -19 2 -27 5 -17 2 9 2 25 0 35 -3 9 -5 1 -5 -18z"/>
<path d="M4082 325 c0 -16 2 -22 5 -12 2 9 2 23 0 30 -3 6 -5 -1 -5 -18z"/>
<path d="M1803 330 c-13 -5 -23 -12 -23 -15 0 -4 5 -3 10 0 6 4 19 4 28 0 14
-7 13 -9 -8 -15 -19 -6 -14 -8 23 -8 39 1 47 4 47 19 0 11 -6 19 -14 19 -8 0
-20 2 -28 4 -7 3 -23 1 -35 -4z"/>
<path d="M980 310 c0 -13 7 -20 20 -20 13 0 20 7 20 20 0 13 -7 20 -20 20 -13
0 -20 -7 -20 -20z m30 0 c0 -5 -4 -10 -10 -10 -5 0 -10 5 -10 10 0 6 5 10 10
10 6 0 10 -4 10 -10z"/>
<path d="M1270 315 c0 -8 4 -17 10 -20 6 -3 7 1 4 9 -8 21 6 20 21 -1 13 -17
35 -10 35 12 0 8 -12 13 -35 13 -23 0 -35 -5 -35 -13z"/>
<path d="M1370 310 c0 -13 7 -20 20 -20 13 0 20 7 20 20 0 13 -7 20 -20 20
-13 0 -20 -7 -20 -20z m30 0 c0 -5 -4 -10 -10 -10 -5 0 -10 5 -10 10 0 6 5 10
10 10 6 0 10 -4 10 -10z"/>
<path d="M1565 320 c-9 -15 4 -30 23 -29 15 1 15 2 0 6 -10 2 -18 8 -18 13 0
5 8 11 18 13 15 4 15 5 0 6 -9 0 -20 -3 -23 -9z"/>
<path d="M1657 323 c-14 -13 -6 -33 13 -33 13 0 20 7 20 20 0 19 -20 27 -33
13z m23 -13 c0 -5 -4 -10 -10 -10 -5 0 -10 5 -10 10 0 6 5 10 10 10 6 0 10 -4
10 -10z"/>
<path d="M1701 308 c1 -17 2 -19 6 -5 5 21 23 23 23 2 0 -8 9 -15 20 -15 13 0
20 7 20 20 0 16 -7 20 -35 20 -30 0 -35 -3 -34 -22z m59 2 c0 -5 -4 -10 -10
-10 -5 0 -10 5 -10 10 0 6 5 10 10 10 6 0 10 -4 10 -10z"/>
<path d="M1891 308 c1 -17 2 -19 6 -5 5 21 33 23 33 2 0 -8 5 -15 11 -15 6 0
8 7 5 16 -3 9 -6 18 -6 20 0 2 -11 4 -25 4 -20 0 -25 -5 -24 -22z"/>
<path d="M1985 320 c-8 -14 3 -30 21 -30 8 0 14 8 14 18 1 15 2 15 15 -2 15
-20 15 -20 16 0 0 18 1 18 9 -1 8 -19 9 -19 9 3 1 19 -4 22 -38 22 -22 0 -43
-4 -46 -10z m25 -10 c0 -5 -4 -10 -10 -10 -5 0 -10 5 -10 10 0 6 5 10 10 10 6
0 10 -4 10 -10z"/>
<path d="M2271 307 c0 -21 1 -21 9 -2 8 19 9 19 9 1 1 -20 1 -20 16 0 14 19
14 19 15 -1 0 -17 2 -17 10 -5 6 10 10 11 10 3 0 -7 8 -13 18 -13 14 0 15 2 2
10 -10 6 -11 10 -2 10 6 0 12 4 12 9 0 4 -22 9 -50 10 -46 1 -50 -1 -49 -22z"/>
<path d="M2380 316 c0 -8 5 -18 12 -22 6 -4 8 -3 4 4 -3 6 -2 13 3 16 5 4 12
-2 14 -11 4 -14 5 -13 6 5 1 16 -5 22 -19 22 -11 0 -20 -6 -20 -14z"/>
<path d="M2459 317 c6 -8 8 -17 4 -20 -3 -4 -1 -7 5 -7 14 0 14 2 6 24 -3 9
-11 16 -16 16 -7 0 -6 -5 1 -13z"/>
<path d="M2514 319 c-9 -15 11 -33 30 -26 9 4 13 13 10 22 -7 17 -30 20 -40 4z
m26 -9 c0 -5 -4 -10 -10 -10 -5 0 -10 5 -10 10 0 6 5 10 10 10 6 0 10 -4 10
-10z"/>
<path d="M78 293 c7 -3 16 -2 19 1 4 3 -2 6 -13 5 -11 0 -14 -3 -6 -6z"/>
<path d="M8665 291 c-3 -5 -1 -12 5 -16 5 -3 10 1 10 9 0 18 -6 21 -15 7z"/>
<path d="M9915 291 c-3 -5 -1 -12 5 -16 5 -3 10 1 10 9 0 18 -6 21 -15 7z"/>
<path d="M7 283 c7 -2 19 -2 26 0 6 3 1 5 -13 5 -14 0 -19 -2 -13 -5z"/>
<path d="M954 263 c15 -4 16 -7 5 -15 -10 -7 -7 -8 11 -4 14 3 34 6 45 7 24 2
-30 17 -60 17 -19 0 -19 -1 -1 -5z"/>
<path d="M858 233 c6 -2 18 -2 25 0 6 3 1 5 -13 5 -14 0 -19 -2 -12 -5z"/>
<path d="M8 223 c7 -3 16 -2 19 1 4 3 -2 6 -13 5 -11 0 -14 -3 -6 -6z"/>
<path d="M788 223 c6 -2 18 -2 25 0 6 3 1 5 -13 5 -14 0 -19 -2 -12 -5z"/>
<path d="M718 213 c6 -2 18 -2 25 0 6 3 1 5 -13 5 -14 0 -19 -2 -12 -5z"/>
<path d="M138 203 c7 -3 16 -2 19 1 4 3 -2 6 -13 5 -11 0 -14 -3 -6 -6z"/>
<path d="M658 203 c6 -2 18 -2 25 0 6 3 1 5 -13 5 -14 0 -19 -2 -12 -5z"/>
<path d="M220 196 c0 -2 7 -7 16 -10 8 -3 12 -2 9 4 -6 10 -25 14 -25 6z"/>
<path d="M189 113 c-13 -16 -12 -17 4 -4 16 13 21 21 13 21 -2 0 -10 -8 -17
-17z"/>
<path d="M341 64 c0 -11 3 -14 6 -6 3 7 2 16 -1 19 -3 4 -6 -2 -5 -13z"/>
<path d="M265 50 c-3 -6 1 -7 9 -4 18 7 21 14 7 14 -6 0 -13 -4 -16 -10z"/>
</g>
</svg>
